<svg xmlns="http://www.w3.org/2000/svg" width="80" height="58" fill="none" xmlns:v="https://vecta.io/nano"><path d="M13.484 40a1.83 1.83 0 0 1-1.292-.494 1.55 1.55 0 0 1-.532-1.178V15.072c0-.481.177-.874.532-1.178a1.83 1.83 0 0 1 1.292-.494h10.564c2.204 0 3.952.659 5.244 1.976 1.317 1.317 1.976 3.091 1.976 5.32a6.31 6.31 0 0 1-.95 3.344c-.633 1.039-1.457 1.811-2.47 2.318v.076c1.444.431 2.559 1.178 3.344 2.242.785 1.039 1.178 2.305 1.178 3.8 0 1.469-.317 2.774-.95 3.914a6.53 6.53 0 0 1-2.584 2.66c-1.115.633-2.394.95-3.838.95H13.484zm10.488-14.858c1.039 0 1.925-.418 2.66-1.254.76-.861 1.14-1.9 1.14-3.116 0-1.343-.342-2.394-1.026-3.154-.659-.76-1.583-1.14-2.774-1.14h-8.778v8.664h8.778zm.76 11.78c1.292 0 2.305-.38 3.04-1.14.735-.785 1.102-1.875 1.102-3.268 0-1.343-.367-2.394-1.102-3.154-.709-.76-1.723-1.14-3.04-1.14h-9.538v8.702h9.538zm25.765-4.514h-3.133c0-1.005.455-1.508 1.365-1.508h6.643c0 1.005-.459 1.508-1.378 1.508h-1.755v6.422c0 .416-.147.737-.442.962-.295.217-.728.325-1.3.325v-7.709zm-10.457 7.79c-1.232 0-2.303-.176-3.212-.528-.895-.352-1.577-.821-2.046-1.408s-.704-1.217-.704-1.892c0-.557.147-.983.44-1.276.293-.308.741-.462 1.342-.462 0 1.247.374 2.2 1.122 2.86.748.645 1.797.968 3.146.968 1.291 0 2.281-.213 2.97-.638.689-.44 1.034-1.085 1.034-1.936 0-.513-.132-.931-.396-1.254-.249-.337-.682-.623-1.298-.858-.601-.249-1.474-.499-2.618-.748-1.349-.293-2.42-.631-3.212-1.012-.792-.396-1.371-.873-1.738-1.43s-.55-1.247-.55-2.068.227-1.54.682-2.156c.469-.631 1.129-1.115 1.98-1.452s1.841-.506 2.97-.506c1.071 0 2.024.154 2.86.462.851.293 1.511.719 1.98 1.276.484.543.726 1.159.726 1.848 0 .425-.139.763-.418 1.012-.264.235-.682.352-1.254.352-.161-1.115-.557-1.929-1.188-2.442-.616-.513-1.518-.77-2.706-.77-1.144 0-2.024.205-2.64.616-.616.396-.924.961-.924 1.694 0 .513.11.939.33 1.276.235.323.623.601 1.166.836.557.235 1.335.462 2.332.682 1.496.323 2.669.682 3.52 1.078.865.396 1.489.88 1.87 1.452s.572 1.276.572 2.112a3.66 3.66 0 0 1-1.672 3.168c-1.115.763-2.603 1.144-4.466 1.144zm-5.32-25.246a.56.56 0 0 1 .192-.456c.133-.112.32-.168.56-.168v5.12c0 .197-.067.352-.2.464-.128.107-.312.16-.552.16v-5.12zm5.395.024c0-.203.061-.36.184-.472.128-.117.304-.176.528-.176l3.104 4.72.056-.048-.232-.384v-4.288c.245 0 .429.053.552.16.128.107.192.261.192.464v4.528a.55.55 0 0 1-.184.424c-.117.112-.269.168-.456.168l-3.176-4.824-.056.048.232.384v3.768c0 .203-.064.357-.192.464-.123.107-.307.16-.552.16v-5.096zm9.18 5.096a.66.66 0 0 1-.376-.2c-.091-.107-.136-.235-.136-.384 0-.101.024-.208.072-.32l1.912-4.6a.36.36 0 0 1 .368-.24c.171 0 .291.08.36.24l1.912 4.6c.048.112.072.219.072.32a.56.56 0 0 1-.136.376.64.64 0 0 1-.376.208l-.688-1.672h-2.296l-.688 1.672zm2.752-2.32l-1.032-2.616-.064.024.144.368-.88 2.224h1.832zm5.71-3c0-.101.035-.184.104-.248.075-.069.168-.104.28-.104h2.208c.517 0 .928.152 1.232.456.309.299.464.699.464 1.2 0 .629-.275 1.075-.824 1.336v.024c.24.101.424.256.552.464s.192.451.192.744v.824c0 .203-.064.357-.192.464s-.315.16-.56.16v-1.4c0-.315-.072-.552-.216-.712s-.347-.248-.624-.248h-1.872v1.736c0 .203-.064.357-.192.464-.123.107-.307.16-.552.16v-5.32zm2.568 2.312c.293 0 .525-.091.696-.272.176-.181.264-.429.264-.744s-.083-.565-.248-.736-.403-.256-.712-.256h-1.824v2.008h1.824zm7.553.904l-1.992-3.544a.46.46 0 0 1 .168-.064.89.89 0 0 1 .224-.032c.272 0 .467.115.584.344l1.368 2.568-.168.336.056.032 1.52-2.936a.62.62 0 0 1 .592-.344.8.8 0 0 1 .216.032.47.47 0 0 1 .176.064l-1.992 3.544v1.48c0 .203-.064.357-.192.464s-.315.16-.56.16v-2.104zM47.35 24.72c0-.063.023-.115.07-.155a.24.24 0 0 1 .17-.065h2.215c0 .14-.028.243-.085.31s-.145.1-.265.1H47.82v1.12h1.4c0 .14-.028.243-.085.31s-.143.1-.26.1H47.82v1.15h1.74c.117 0 .203.033.26.1s.085.17.085.31H47.59c-.067 0-.123-.02-.17-.06a.21.21 0 0 1-.07-.16v-3.06zm4.998 3.325c-.1-.02-.178-.062-.235-.125a.36.36 0 0 1-.085-.24.51.51 0 0 1 .045-.2l1.195-2.875c.04-.1.117-.15.23-.15.107 0 .182.05.225.15l1.195 2.875a.51.51 0 0 1 .045.2.35.35 0 0 1-.085.235.4.4 0 0 1-.235.13L54.213 27h-1.435l-.43 1.045zm1.72-1.45l-.645-1.635-.04.015.09.23-.55 1.39h1.145zm3.269-1.875c0-.063.022-.115.065-.155s.105-.065.175-.065h1.38c.323 0 .58.095.77.285s.29.437.29.75c0 .393-.172.672-.515.835v.015a.72.72 0 0 1 .345.29c.08.13.12.282.12.465v.515c0 .127-.04.223-.12.29s-.197.1-.35.1v-.875c0-.197-.045-.345-.135-.445s-.217-.155-.39-.155h-1.17v1.085c0 .127-.04.223-.12.29s-.192.1-.345.1V24.72zm1.605 1.445a.57.57 0 0 0 .435-.17c.107-.113.165-.268.165-.465s-.052-.353-.155-.46-.252-.16-.445-.16h-1.14v1.255h1.14zm4.92 1.88a1.75 1.75 0 0 1-.75-.155 1.26 1.26 0 0 1-.515-.44c-.12-.19-.18-.405-.18-.645v-1.12c0-.24.06-.453.18-.64a1.23 1.23 0 0 1 .51-.435c.217-.103.465-.155.745-.155a1.93 1.93 0 0 1 .745.135 1.16 1.16 0 0 1 .505.365.85.85 0 0 1 .185.54c0 .1-.033.178-.1.235s-.155.085-.265.085a.81.81 0 0 1-.105-.01c.007-.04.01-.103.01-.19 0-.143-.042-.272-.125-.385a.78.78 0 0 0-.345-.265 1.27 1.27 0 0 0-.505-.095c-.19 0-.353.035-.5.105s-.262.163-.345.29a.74.74 0 0 0-.12.42v1.12a.79.79 0 0 0 .12.43c.083.123.198.22.345.29s.32.105.51.105.365-.032.515-.095a.83.83 0 0 0 .35-.26.64.64 0 0 0 .125-.39 2.02 2.02 0 0 0-.01-.19l.1-.01a.37.37 0 0 1 .265.095c.067.063.105.148.105.255 0 .197-.062.372-.185.525s-.295.273-.515.36-.467.125-.75.125zm3.823-3.2c0-.127.04-.223.12-.29s.197-.1.35-.1v1.575h1.775v-1.185c0-.127.04-.223.12-.29s.197-.1.35-.1v3.2c0 .127-.04.223-.12.29s-.197.1-.35.1v-1.6h-1.775v1.21c0 .127-.04.223-.12.29s-.197.1-.35.1v-3.2zM56.35 31.72c0-.063.022-.115.065-.155s.105-.065.175-.065h1.38c.323 0 .58.095.77.285s.29.437.29.75c0 .393-.172.672-.515.835v.015a.72.72 0 0 1 .345.29c.08.13.12.282.12.465v.515c0 .127-.04.223-.12.29s-.197.1-.35.1v-.875c0-.197-.045-.345-.135-.445s-.217-.155-.39-.155h-1.17v1.085c0 .127-.04.223-.12.29s-.192.1-.345.1V31.72zm1.605 1.445a.57.57 0 0 0 .435-.17c.107-.113.165-.268.165-.465s-.052-.353-.155-.46-.252-.16-.445-.16h-1.14v1.255h1.14zm2.425-1.445c0-.063.023-.115.07-.155a.24.24 0 0 1 .17-.065h2.215c0 .14-.028.243-.085.31s-.145.1-.265.1H60.85v1.12h1.4c0 .14-.028.243-.085.31s-.143.1-.26.1H60.85v1.15h1.74c.117 0 .203.033.26.1s.085.17.085.31H60.62c-.067 0-.123-.02-.17-.06a.21.21 0 0 1-.07-.16v-3.06zm3.83 0c0-.063.023-.115.07-.155a.24.24 0 0 1 .17-.065h2.215c0 .14-.028.243-.085.31s-.145.1-.265.1H64.68v1.12h1.4c0 .14-.028.243-.085.31s-.143.1-.26.1H64.68v1.15h1.74c.117 0 .203.033.26.1s.085.17.085.31H64.45c-.067 0-.123-.02-.17-.06a.21.21 0 0 1-.07-.16v-3.06zm4.953 3.325a2.02 2.02 0 0 1-.73-.12 1.09 1.09 0 0 1-.465-.32c-.107-.133-.16-.277-.16-.43 0-.127.033-.223.1-.29s.168-.105.305-.105c0 .283.085.5.255.65s.408.22.715.22c.293 0 .518-.048.675-.145a.49.49 0 0 0 .235-.44c0-.117-.03-.212-.09-.285a.64.64 0 0 0-.295-.195c-.137-.057-.335-.113-.595-.17-.307-.067-.55-.143-.73-.23s-.312-.198-.395-.325a.84.84 0 0 1-.125-.47c0-.187.052-.35.155-.49s.257-.253.45-.33.418-.115.675-.115c.243 0 .46.035.65.105s.343.163.45.29.165.263.165.42c0 .097-.032.173-.095.23s-.155.08-.285.08c-.037-.253-.127-.438-.27-.555s-.345-.175-.615-.175c-.26 0-.46.047-.6.14a.43.43 0 0 0-.21.385.52.52 0 0 0 .075.29c.053.073.142.137.265.19s.303.105.53.155c.34.073.607.155.8.245s.338.2.425.33.13.29.13.48c0 .303-.127.543-.38.72s-.592.26-1.015.26z" fill="#fff"/><path stroke="#fff" stroke-width="1.2" stroke-linecap="round" d="M.6 46.4h78.8"/><path d="M8.968 56.054c-.292 0-.562-.056-.81-.168s-.438-.27-.582-.462a1.07 1.07 0 0 1-.216-.648v-1.752c0-.236.07-.45.21-.642a1.46 1.46 0 0 1 .582-.462 1.9 1.9 0 0 1 .816-.174c.296 0 .566.058.81.174s.442.266.582.462.216.406.216.642v1.752a1.07 1.07 0 0 1-.216.648c-.144.192-.34.346-.588.462s-.512.168-.804.168zm0-.504c.308 0 .558-.072.75-.216s.294-.338.294-.57v-1.728c0-.232-.098-.42-.294-.564s-.442-.222-.75-.222-.56.074-.756.222-.288.332-.288.564v1.728c0 .232.096.422.288.57s.448.216.756.216zm4.958.504c-.052 0-.108-.01-.168-.03s-.11-.044-.15-.084l1.104-1.518-.978-1.386a.34.34 0 0 1 .132-.066c.06-.016.114-.024.162-.024.152 0 .264.054.336.162l.624.93-.114.162.03.024.762-1.116c.036-.052.084-.092.144-.12s.132-.042.204-.042a.57.57 0 0 1 .156.024.34.34 0 0 1 .132.066l-.984 1.386 1.098 1.518c-.036.04-.082.068-.138.084s-.102.03-.15.03c-.064 0-.128-.014-.192-.042s-.11-.058-.138-.102l-.786-1.146-.78 1.146c-.032.048-.076.084-.132.108s-.114.036-.174.036zm6.181 0c-.344 0-.622-.092-.834-.276s-.312-.426-.312-.726.11-.548.33-.732.51-.282.87-.282c.384 0 .7.136.948.408l.024-.024-.15-.15v-.252c0-.204-.064-.362-.192-.474s-.31-.168-.546-.168c-.42 0-.72.166-.9.498-.064-.032-.118-.074-.162-.126s-.06-.112-.06-.168c0-.108.054-.21.162-.306s.25-.18.426-.24a1.77 1.77 0 0 1 .564-.09c.38 0 .678.094.894.282s.33.448.33.78v1.644c0 .14-.04.242-.12.306s-.206.096-.378.096v-.282l.138-.156-.024-.024c-.26.308-.596.462-1.008.462zm.09-.414c.248 0 .442-.052.582-.156s.216-.248.216-.432-.07-.33-.21-.438-.332-.162-.576-.162c-.228 0-.408.054-.54.162s-.192.25-.192.438a.54.54 0 0 0 .186.438c.128.1.306.15.534.15zm4.513-3.486c0-.272.176-.408.528-.408v1.464c-.06.052-.102.096-.126.132l.018.03c.12-.128.266-.23.438-.306s.348-.12.516-.12c.356 0 .64.094.852.282s.318.44.318.756v1.026c0 .2-.05.38-.15.54a.97.97 0 0 1-.408.372c-.176.088-.376.132-.6.132-.392 0-.722-.172-.99-.516l-.018.024a1.6 1.6 0 0 0 .12.15c0 .116-.04.202-.12.258s-.206.084-.378.084v-3.9zm1.272 3.438c.244 0 .43-.052.558-.156s.198-.254.198-.45v-.978c0-.188-.066-.334-.198-.438s-.316-.162-.552-.162a.86.86 0 0 0-.534.168c-.148.112-.222.246-.222.402v1.038c0 .164.072.302.216.414s.322.162.534.162zm5.548.462c-.344 0-.624-.094-.84-.282s-.318-.446-.318-.762v-1.026a.98.98 0 0 1 .15-.54.97.97 0 0 1 .414-.366 1.39 1.39 0 0 1 .618-.132 1.15 1.15 0 0 1 .522.12c.16.076.3.178.42.306l.018-.03a.75.75 0 0 0-.126-.132v-1.056c0-.132.044-.232.132-.3s.22-.108.396-.108v3.882a.41.41 0 0 1-.12.312c-.076.076-.2.114-.372.114v-.336l.114-.156-.018-.024a1.57 1.57 0 0 1-.426.378c-.156.092-.344.138-.564.138zm.114-.462c.212 0 .39-.054.534-.162s.216-.25.216-.414v-1.038c0-.16-.068-.294-.204-.402s-.32-.168-.552-.168-.42.054-.552.162-.192.25-.192.438v.978c0 .196.064.346.192.45s.318.156.558.156zm6.994.018c0 .296-.168.444-.504.444v-.384c.036-.036.078-.09.126-.162l-.024-.024a1.37 1.37 0 0 1-.456.414c-.18.104-.378.156-.594.156a1.18 1.18 0 0 1-.576-.138c-.164-.092-.292-.22-.384-.384a1.15 1.15 0 0 1-.132-.552v-1.65c0-.132.044-.228.132-.288s.22-.096.396-.096v2.01c0 .192.056.346.168.462s.286.174.51.174c.148 0 .284-.03.408-.09a.79.79 0 0 0 .294-.252c.076-.108.114-.224.114-.348V53.33c0-.132.042-.228.126-.288s.22-.096.396-.096v2.664zm4.108.444c-.292 0-.51-.08-.654-.24s-.216-.378-.216-.642V52.13c0-.132.042-.228.126-.288s.22-.096.396-.096v3.408c0 .156.032.268.096.336s.17.102.318.102a.8.8 0 0 0 .408-.108.31.31 0 0 1 .078.21c0 .096-.05.18-.15.252s-.234.108-.402.108zm6.077-.132c-.032.04-.072.072-.12.096s-.102.036-.162.036a.37.37 0 0 1-.168-.036c-.048-.024-.092-.068-.132-.132l-.954-1.494-.444.396v.888c0 .252-.172.378-.516.378v-3.876c0-.288.174-.432.522-.432l-.006 2.508 1.452-1.302c.116.108.174.2.174.276 0 .056-.014.102-.042.138a1.17 1.17 0 0 1-.144.144l-.672.594 1.212 1.818zm3.121-3.732c0-.144.044-.254.132-.33s.218-.114.39-.114v1.578a1.68 1.68 0 0 0-.132.168l.024.024a1.44 1.44 0 0 1 .468-.408c.188-.108.392-.162.612-.162.324 0 .58.096.768.288s.282.44.282.744v1.692c0 .132-.044.23-.132.294s-.214.09-.39.09v-2.022c0-.192-.054-.344-.162-.456s-.272-.168-.492-.168a.95.95 0 0 0-.42.096c-.128.06-.232.144-.312.252s-.114.218-.114.342v1.572c0 .132-.044.23-.132.294s-.214.09-.39.09V52.19zm6.718 3.864c-.344 0-.622-.092-.834-.276s-.312-.426-.312-.726.11-.548.33-.732.51-.282.87-.282c.384 0 .7.136.948.408l.024-.024-.15-.15v-.252c0-.204-.064-.362-.192-.474s-.31-.168-.546-.168c-.42 0-.72.166-.9.498-.064-.032-.118-.074-.162-.126s-.06-.112-.06-.168c0-.108.054-.21.162-.306s.25-.18.426-.24a1.77 1.77 0 0 1 .564-.09c.38 0 .678.094.894.282s.33.448.33.78v1.644c0 .14-.04.242-.12.306s-.206.096-.378.096v-.282l.138-.156-.024-.024c-.26.308-.596.462-1.008.462zm.09-.414c.248 0 .442-.052.582-.156s.216-.248.216-.432-.07-.33-.21-.438-.332-.162-.576-.162c-.228 0-.408.054-.54.162s-.192.25-.192.438a.54.54 0 0 0 .186.438c.128.1.306.15.534.15zm5.383.414c-.292 0-.51-.08-.654-.24s-.216-.378-.216-.642V52.13c0-.132.042-.228.126-.288s.22-.096.396-.096v3.408c0 .156.032.268.096.336s.17.102.318.102a.8.8 0 0 0 .408-.108.31.31 0 0 1 .078.21c0 .096-.05.18-.15.252s-.234.108-.402.108zm3.977-3.558c-.112 0-.206-.036-.282-.108s-.114-.162-.114-.27.038-.196.114-.264.17-.108.282-.108.2.036.276.108.114.156.114.264-.038.198-.114.27-.168.108-.276.108zm-.264.834c0-.132.042-.228.126-.288s.22-.096.396-.096v2.724c0 .132-.044.23-.132.294s-.214.09-.39.09V53.33zm4.995 2.724c-.344 0-.624-.094-.84-.282s-.318-.446-.318-.762v-1.026a.98.98 0 0 1 .15-.54.97.97 0 0 1 .414-.366 1.39 1.39 0 0 1 .618-.132 1.15 1.15 0 0 1 .522.12c.16.076.3.178.42.306l.018-.03a.75.75 0 0 0-.126-.132v-1.056c0-.132.044-.232.132-.3s.22-.108.396-.108v3.882a.41.41 0 0 1-.12.312c-.076.076-.2.114-.372.114v-.336l.114-.156-.018-.024a1.57 1.57 0 0 1-.426.378c-.156.092-.344.138-.564.138zm.114-.462c.212 0 .39-.054.534-.162s.216-.25.216-.414v-1.038c0-.16-.068-.294-.204-.402s-.32-.168-.552-.168-.42.054-.552.162-.192.25-.192.438v.978c0 .196.064.346.192.45s.318.156.558.156z" fill="#fff"/></svg>